<?xml version="1.0" encoding="UTF-8"?>
<svg version="1.1" xmlns="http://www.w3.org/2000/svg" width="795" height="839">
<path d="M0 0 C3.22417499 1.37196174 4.8673217 2.76919734 6.890625 5.61328125 C7.42679443 6.35570068 7.96296387 7.09812012 8.51538086 7.86303711 C9.08780518 8.67135986 9.66022949 9.47968262 10.25 10.3125 C11.50487059 12.05066422 12.76144421 13.78759993 14.01953125 15.5234375 C14.67260254 16.42674805 15.32567383 17.33005859 15.99853516 18.26074219 C19.24497024 22.70389925 22.58984187 27.07038538 25.9375 31.4375 C30.59655911 37.5228017 35.22451174 43.62804949 39.79980469 49.77661133 C45.46448536 57.38641968 51.20321105 64.89877118 57.29760742 72.17138672 C60.0748909 75.51061249 62.63514819 78.87892699 65.01953125 82.51171875 C65.52073486 83.25196289 66.02193848 83.99220703 66.53833008 84.75488281 C67.47886566 86.15932378 68.38694014 87.5863468 69.25268555 89.03808594 C71.34793208 92.12022678 72.88520688 93.78350097 76.63493347 94.51171875 C85.25743978 94.98795409 93.85354763 95.13123684 102.48828125 95.09765625 C103.92701671 95.09578524 105.36575281 95.09436458 106.80448914 95.09336853 C110.54440144 95.08959702 114.28427331 95.07981433 118.02416992 95.06866455 C121.85920668 95.05833331 125.69425014 95.05384613 129.52929688 95.04882812 C137.01954944 95.03818578 144.509769 95.02117607 152 95 C150.50908297 98.07254082 148.85794376 100.64809654 146.76171875 103.3515625 C145.78887939 104.61444092 145.78887939 104.61444092 144.79638672 105.90283203 C143.75248779 107.25030518 143.75248779 107.25030518 142.6875 108.625 C137.48686269 115.39177142 132.34765654 122.18871801 127.375 129.125 C122.93271864 135.31943816 118.45978038 141.48863625 113.9375 147.625 C113.06508667 148.81065552 113.06508667 148.81065552 112.17504883 150.02026367 C109.3773367 153.81355276 106.56037362 157.58929899 103.6953125 161.33203125 C86.7989936 183.42182698 81.52046527 203.45742686 79.9375 230.875 C79.87588181 231.91466919 79.87588181 231.91466919 79.8130188 232.9753418 C78.80108648 250.36824704 78.56719091 267.78181662 78.27209473 285.19848633 C78.25449097 286.23384521 78.23688721 287.2692041 78.21875 288.3359375 C78.20146851 289.35324951 78.18418701 290.37056152 78.16638184 291.41870117 C77.96154672 302.95444959 77.51815565 314.47435362 77 326 C78.21389404 325.93216309 79.42778809 325.86432617 80.6784668 325.79443359 C89.35367278 325.32578101 98.01976463 324.92880361 106.70703125 324.7890625 C107.51708115 324.77591507 108.32713104 324.76276764 109.16172791 324.7492218 C110.8418763 324.72235066 112.52202669 324.6956039 114.20217896 324.66897583 C131.18468235 324.38287321 148.1130166 323.65439362 165.0625 322.5625 C166.03538971 322.50096741 167.00827942 322.43943481 168.01065063 322.3760376 C177.6715963 321.75774855 187.31516143 321.04157155 196.94140625 320.0078125 C197.65804947 319.93264908 198.37469269 319.85748566 199.11305237 319.78004456 C220.43429723 317.35919273 236.08041742 303.85080752 252.7109375 291.50390625 C254.28615461 290.3355279 255.86167618 289.16755993 257.4375 288 C258.22092773 287.41951904 259.00435547 286.83903809 259.81152344 286.2409668 C266.17164051 281.55425619 272.65545551 277.0693901 279.19335938 272.63525391 C284.15055167 269.27263206 289.06747808 265.86276933 293.9375 262.375 C294.49864502 261.97313477 295.05979004 261.57126953 295.63793945 261.15722656 C298.4492099 259.13593225 301.2388112 257.08918863 304 255 C304.66 255.33 305.32 255.66 306 256 C305.96669083 256.93801453 305.93338165 257.87602905 305.89906311 258.84246826 C305.59364938 267.72628336 305.36952239 276.60902167 305.22281742 285.49691391 C305.144846 290.06577686 305.0393289 294.63037177 304.8684082 299.19677734 C304.70417192 303.61275555 304.61550071 308.02466031 304.57684135 312.44345856 C304.54933663 314.12000947 304.49561217 315.79636164 304.41404915 317.47115326 C303.85507749 326.68535978 303.85507749 326.68535978 307.453228 334.86921692 C311.0001579 338.37340343 314.96134003 341.16369868 319.16457939 343.82305145 C321.7622424 345.48878174 324.18442874 347.36427601 326.625 349.25 C327.58792969 349.96542969 328.55085937 350.68085938 329.54296875 351.41796875 C334.036303 354.76187693 338.48415794 358.16563581 342.9375 361.5625 C343.83734619 362.24852295 344.73719238 362.9345459 345.66430664 363.64135742 C350.21763505 367.11333566 354.76935879 370.58740993 359.3203125 374.0625 C371.16704708 383.10423923 383.06251933 392.078406 395 401 C390.86234825 405.42613344 386.27665198 408.89372797 381.375 412.4375 C379.66534487 413.68617093 377.95571002 414.93486962 376.24609375 416.18359375 C374.49740866 417.4557468 372.74871092 418.72788246 371 420 C360.74211752 427.48459871 350.57001762 435.05099639 340.5715332 442.87963867 C334.45455132 447.66499599 328.26495045 452.34585122 322.0390625 456.98828125 C321.46317886 457.43999695 320.88729523 457.89171265 320.29396057 458.3571167 C318 460 318 460 315.02175903 461.60903931 C308.98693105 465.14158608 308.98693105 465.14158608 305.3275795 470.87631035 C304.29613178 476.40519536 304.62330925 482.00568546 304.828125 487.59765625 C304.85053685 489.40077541 304.86760409 491.2039682 304.87957764 493.00718689 C304.92516601 497.72905061 305.0428114 502.44640813 305.17602539 507.16650391 C305.29930057 511.9925439 305.35369672 516.81932017 305.4140625 521.64648438 C305.54234753 531.09962482 305.74684837 540.54943623 306 550 C305.34 550 304.68 550 304 550 C304 549.34 304 548.68 304 548 C303.17048828 547.62294922 303.17048828 547.62294922 302.32421875 547.23828125 C299.59628758 545.78491288 297.27425249 544.05898744 294.8125 542.1875 C294.30130615 541.80005615 293.7901123 541.4126123 293.26342773 541.01342773 C291.50605539 539.67938109 289.75287634 538.33994797 288 537 C286.6302303 535.95570036 285.26043769 534.91143076 283.890625 533.8671875 C278.44649479 529.71255434 273.00725764 525.55155759 267.5859375 521.3671875 C264.95164788 519.33427417 262.313729 517.30627336 259.671875 515.28320312 C258.51635606 514.39631534 257.36283379 513.50682222 256.2109375 512.61523438 C233.59728336 495.13459587 214.29478083 482.82992873 185.328125 480.44921875 C184.55889961 480.38482794 183.78967422 480.32043713 182.99713898 480.25409508 C162.60720047 478.58033792 142.18184448 478.2292029 121.73461914 477.86688232 C116.66405516 477.77449229 111.59376695 477.66880264 106.5234375 477.56445312 C96.6825107 477.36377276 86.84137869 477.17703703 77 477 C77.16018112 477.84634506 77.32036224 478.69269012 77.48539734 479.56468201 C78.01093953 483.07302868 78.17118305 486.41904774 78.23364258 489.96508789 C78.24696688 490.63971604 78.26029118 491.3143442 78.27401924 492.00941563 C78.30265222 493.47546688 78.32939216 494.94155607 78.3544445 496.40767288 C78.42440223 500.44768594 78.51150443 504.48735239 78.59521484 508.52709961 C78.62112339 509.80703671 78.62112339 509.80703671 78.64755535 511.11283112 C79.22585311 539.58426884 80.05671111 568.01602218 81.875 596.4375 C81.95013824 597.68870636 82.02527649 598.93991272 82.10269165 600.22903442 C83.91734689 629.94349025 91.7357587 649.90518856 109 674 C109.54350098 674.76103027 110.08700195 675.52206055 110.64697266 676.30615234 C114.40378517 681.55754991 118.19810266 686.78119711 122 692 C128.45995525 700.87910762 134.89674678 709.76864896 141.125 718.8125 C141.57439941 719.46428223 142.02379883 720.11606445 142.48681641 720.78759766 C144.78396204 724.14374243 146.90070134 727.5011689 149 731 C123.59 731.33 98.18 731.66 72 732 C71.34 733.65 70.68 735.3 70 737 C68.63993598 738.91645384 67.21449157 740.78711157 65.75 742.625 C61.5152474 748.00643663 57.41731311 753.4726741 53.375 759 C44.61703696 770.94212967 35.61523135 782.69681381 26.58984375 794.4375 C25.5181447 795.83326848 24.44652823 797.22910038 23.375 798.625 C22.60265015 799.62877686 22.60265015 799.62877686 21.81469727 800.65283203 C18.88439954 804.47790158 16.01387141 808.33957708 13.1875 812.2421875 C12.55150879 813.11794434 11.91551758 813.99370117 11.26025391 814.89599609 C10.02669602 816.59984592 8.7995317 818.3083475 7.57958984 820.02197266 C7.02480957 820.78815918 6.4700293 821.5543457 5.8984375 822.34375 C5.41036621 823.02630859 4.92229492 823.70886719 4.41943359 824.41210938 C3 826 3 826 0 827 C-0.34144043 826.52280518 -0.68288086 826.04561035 -1.03466797 825.55395508 C-8.19065004 815.5655466 -15.44694031 805.69165106 -23 796 C-32.23610687 784.06318983 -41.31747624 772.01506991 -50.27172852 759.86523438 C-51.460536 758.25357771 -52.65240869 756.6441773 -53.84741211 755.03710938 C-56.65952869 751.24346007 -59.40593005 747.43229699 -62.015625 743.49609375 C-62.48991943 742.7987915 -62.96421387 742.10148926 -63.45288086 741.38305664 C-64.32885083 740.08931396 -65.18322772 738.78055075 -66.01000977 737.45483398 C-67.32118398 735.42163251 -67.32118398 735.42163251 -70 733 C-78.15511795 731.5641942 -86.49361882 731.77887357 -94.75390625 731.68359375 C-96.26562516 731.66298379 -97.77733883 731.64198638 -99.28904724 731.62062073 C-103.23938719 731.56581688 -107.18977549 731.51622645 -111.14019775 731.46777344 C-115.18270087 731.41725106 -119.22513507 731.36172657 -123.26757812 731.30664062 C-131.17832689 731.19957014 -139.08913388 731.09801497 -147 731 C-145.88813523 729.23777213 -144.77431316 727.4767791 -143.65966797 725.71630859 C-143.03961884 724.73552338 -142.4195697 723.75473816 -141.7807312 722.74423218 C-139.70764358 719.54945817 -137.49690231 716.60385375 -135.125 713.625 C-131.00420442 708.37408133 -127.15237684 702.98642089 -123.38671875 697.47265625 C-121.26637905 694.37069424 -119.09169183 691.31008757 -116.90844727 688.25219727 C-99.58568637 664.72369524 -99.58568637 664.72369524 -86 639 C-85.67 638.22140625 -85.34 637.4428125 -85 636.640625 C-83.06957652 631.25771338 -82.56663339 625.72379362 -82.01953125 620.0703125 C-81.93372803 619.19250122 -81.8479248 618.31468994 -81.75952148 617.41027832 C-80.78317304 607.12089295 -80.10738089 596.81687728 -79.5 586.5 C-79.43685608 585.44770203 -79.37371216 584.39540405 -79.30865479 583.31121826 C-77.9608738 560.52979397 -77.28341472 537.73325025 -76.70219994 514.92161751 C-76.64723033 512.76558609 -76.59121755 510.60958366 -76.5350647 508.45358276 C-76.46638576 505.81506807 -76.40256206 503.17659356 -76.34164429 500.53787231 C-76.14177987 492.66504143 -75.68302592 484.84573948 -75 477 C-84.4352528 477.21930116 -93.87032042 477.44523605 -103.30523396 477.67867851 C-107.69064768 477.78699615 -112.07608678 477.89338291 -116.46166992 477.99462891 C-134.75122779 478.4183638 -153.02279538 478.94494789 -171.2890625 479.984375 C-172.3642662 480.04445047 -172.3642662 480.04445047 -173.46119118 480.10573959 C-209.80148197 482.16705466 -232.06845468 495.10140513 -260.10449219 517.49462891 C-263.73548583 520.37828511 -267.40078572 523.21803013 -271.0625 526.0625 C-272.20887939 526.95376587 -272.20887939 526.95376587 -273.37841797 527.86303711 C-278.95211918 532.19355802 -284.54210197 536.50242283 -290.140625 540.80078125 C-294.10640782 543.85096667 -298.0557423 546.92205213 -302 550 C-302.66 549.67 -303.32 549.34 -304 549 C-303.95336716 548.03328369 -303.90673431 547.06656738 -303.85868835 546.07055664 C-303.43027008 536.89457218 -303.11697727 527.7206462 -302.91194439 518.53688049 C-302.80295767 513.81587741 -302.65568313 509.10302567 -302.41577148 504.38671875 C-300.6064639 484.40822354 -300.6064639 484.40822354 -305.98898315 465.76593018 C-310.7153041 460.67243992 -316.14119614 457.38408744 -322.35168457 454.37368774 C-326.52332468 452.20984773 -330.04707117 449.31952493 -333.6875 446.375 C-335.06495593 445.3167203 -336.44483694 444.2615825 -337.828125 443.2109375 C-340.70564968 441.00320492 -343.56809382 438.77739568 -346.421875 436.5390625 C-354.68455493 430.06039064 -363.02673726 423.74761271 -371.56616211 417.63745117 C-388.48851947 405.51148053 -388.48851947 405.51148053 -393 401 C-386.82974914 395.89249158 -380.4635937 391.10158869 -374 386.375 C-365.20007295 379.93441697 -356.57958338 373.28685113 -347.99707031 366.56054688 C-345.17726395 364.35709916 -342.33967472 362.17779565 -339.5 360 C-332.76335852 354.82783237 -326.06084683 349.61214883 -319.359375 344.39453125 C-318.65103516 343.84490723 -317.94269531 343.2952832 -317.21289062 342.72900391 C-315.64156121 341.50127278 -314.07857809 340.26282617 -312.52148438 339.01708984 C-311.71517578 338.37594238 -310.90886719 337.73479492 -310.078125 337.07421875 C-309.3449707 336.48600342 -308.61181641 335.89778809 -307.85644531 335.29174805 C-306 334 -306 334 -304 334 C-304.00580078 332.91879883 -304.01160156 331.83759766 -304.01757812 330.72363281 C-304.07170241 315.41686962 -303.80841345 300.11675044 -303.53643799 284.81298828 C-303.47484596 281.32586821 -303.41525451 277.83871392 -303.35546875 274.3515625 C-303.23887991 267.56767461 -303.12016345 260.7838255 -303 254 C-301.58950742 254.93499732 -300.17973871 255.87108667 -298.77026367 256.80761719 C-297.98511887 257.32878113 -297.19997406 257.84994507 -296.39103699 258.38690186 C-292.63481981 260.92101027 -288.97428077 263.58206756 -285.3125 266.25 C-283.72419886 267.40267525 -282.13565489 268.55501597 -280.546875 269.70703125 C-279.77279297 270.2685791 -278.99871094 270.83012695 -278.20117188 271.40869141 C-275.71337822 273.20720949 -273.21438054 274.98927806 -270.71142578 276.76660156 C-259.53381667 284.70379631 -248.40688286 292.74375162 -237.60351562 301.18505859 C-202.20405461 328.8341504 -150.40479907 323.67439689 -107.3536377 324.99578857 C-103.69209909 325.10855447 -100.03062312 325.22331965 -96.36914062 325.33789062 C-89.24615211 325.56049325 -82.12309933 325.78096963 -75 326 C-75.10399864 325.03901146 -75.10399864 325.03901146 -75.21009827 324.05860901 C-75.95735402 316.6214808 -76.17996926 309.24841427 -76.24609375 301.77734375 C-76.27755635 299.20686409 -76.3093898 296.63638896 -76.34155273 294.06591797 C-76.35716212 292.72361335 -76.37269477 291.38130783 -76.38815308 290.03900146 C-76.66355623 266.64986321 -77.14683981 243.32549121 -79 220 C-79.06799805 219.02675781 -79.13599609 218.05351562 -79.20605469 217.05078125 C-81.03755426 190.98212747 -91.71630053 173.96729859 -107.16943359 153.43945312 C-110.14061373 149.47999302 -113.06840221 145.48880087 -116 141.5 C-117.16386817 139.92042971 -118.32793101 138.34100284 -119.4921875 136.76171875 C-121.85343197 133.55736102 -124.21258546 130.35147783 -126.5703125 127.14453125 C-133.99154972 117.05428819 -141.46484413 107.00547253 -149 97 C-148.67 96.34 -148.34 95.68 -148 95 C-122.26 95 -96.52 95 -70 95 C-69.34 93.35 -68.68 91.7 -68 90 C-66.70996094 88.08154297 -66.70996094 88.08154297 -65.234375 86.2421875 C-64.68104492 85.54375732 -64.12771484 84.84532715 -63.55761719 84.12573242 C-62.96110352 83.38299072 -62.36458984 82.64024902 -61.75 81.875 C-56.62619857 75.39830716 -51.62352383 68.85465801 -46.75 62.1875 C-40.23745065 53.29577797 -33.5633642 44.54673815 -26.765625 35.87109375 C-12.92666555 18.27028484 -12.92666555 18.27028484 0 0 Z M1 45 C-0.61021748 46.74153619 -2.15713039 48.50208715 -3.6875 50.3125 C-4.17299316 50.88645508 -4.65848633 51.46041016 -5.15869141 52.05175781 C-10.55970575 58.53433763 -15.49174576 65.35032777 -20.45703125 72.16796875 C-23.75470274 76.68886828 -27.14324279 81.13321971 -30.5625 85.5625 C-35.13079466 91.49904576 -39.60471409 97.49664173 -44 103.5625 C-44.52795166 104.28832275 -45.05590332 105.01414551 -45.59985352 105.76196289 C-46.35480103 106.80984985 -46.35480103 106.80984985 -47.125 107.87890625 C-47.85843628 108.89416382 -47.85843628 108.89416382 -48.60668945 109.92993164 C-50.04254343 111.99106605 -50.04254343 111.99106605 -51.22729492 114.27124023 C-52.36307813 116.36744377 -53.4317174 118.2034231 -55 120 C-58.36328125 120.96484375 -58.36328125 120.96484375 -62.3125 120.9375 C-63.80730188 120.95487161 -65.3020933 120.97315872 -66.796875 120.9921875 C-67.61478516 120.98928711 -68.43269531 120.98638672 -69.27539062 120.98339844 C-74.54250112 121.01549194 -79.80169341 121.31959757 -85.0625 121.5625 C-87.15748342 121.64881839 -89.25253146 121.73359031 -91.34765625 121.81640625 C-92.24492432 121.85193604 -93.14219238 121.88746582 -94.06665039 121.92407227 C-94.70465576 121.94912842 -95.34266113 121.97418457 -96 122 C-93.49755942 126.55761237 -90.88126959 130.61438462 -87.625 134.6875 C-67.09567272 160.9516929 -55.26875782 183.76089007 -52.9375 217.5 C-52.85443604 218.67884766 -52.77137207 219.85769531 -52.68579102 221.07226562 C-52.00443345 231.16466527 -51.51041833 241.25085536 -51.26953125 251.36328125 C-51.11850241 257.37839558 -50.81489235 263.37108901 -50.45613098 269.37728882 C-50.19385791 273.98523375 -49.98935008 278.59491088 -49.79226685 283.20605469 C-49.68140716 285.51345723 -49.54728944 287.81986818 -49.38912964 290.12451172 C-48.17033969 308.20587518 -48.17033969 308.20587518 -51.19696045 312.82791138 C-54.61129729 316.21266016 -58.67131146 318.02559521 -63 320 C-70.29872098 325.42999526 -79.53772264 333.33446368 -83.203125 341.76831055 C-84.7905864 345.19098908 -86.21538581 347.43191096 -89 350 C-95.07400054 351.51739796 -100.97505182 351.12202869 -107.1875 350.8125 C-109.00590337 350.76167034 -110.82443835 350.71536925 -112.64306641 350.67333984 C-117.45292123 350.54653344 -122.25708546 350.34815783 -127.0635376 350.1293335 C-129.97348253 350.00116794 -132.88350951 349.89096845 -135.79443359 349.78759766 C-148.53831305 349.33486301 -161.26904989 348.72915586 -174 348 C-175.09266174 347.93845734 -175.09266174 347.93845734 -176.20739746 347.87567139 C-212.52489301 345.8177012 -235.54138032 337.4034091 -264.03125 314.81640625 C-264.66828857 314.31141602 -265.30532715 313.80642578 -265.96166992 313.28613281 C-267.16858967 312.32518206 -268.37206169 311.35988022 -269.5715332 310.38964844 C-272.05135257 308.40697751 -273.95877758 307.01374081 -277 306 C-276.96221436 307.18964355 -276.92442871 308.37928711 -276.88549805 309.60498047 C-276.76156431 314.05959747 -276.72483778 318.51156569 -276.71313477 322.96777344 C-276.69619971 324.88837037 -276.65625754 326.80891785 -276.59204102 328.72851562 C-276.09920531 344.14666018 -276.09920531 344.14666018 -279.18835449 348.78387451 C-282.60931547 352.34779124 -286.71494638 354.61294816 -291 357 C-292.65180624 358.17957434 -294.28719178 359.38278614 -295.8984375 360.6171875 C-297.39017378 361.70374475 -298.88236205 362.78968173 -300.375 363.875 C-306.80639278 368.57939727 -313.08991541 373.4149457 -319.2722168 378.44067383 C-326.66388178 384.41044292 -334.3584692 389.97604333 -342.03979492 395.56469727 C-344.03818726 397.0279615 -346.02130138 398.51024408 -348 400 C-346.74042067 403.77873798 -345.33264401 404.48895732 -342.125 406.8125 C-341.60542725 407.192854 -341.08585449 407.57320801 -340.55053711 407.96508789 C-339.37064512 408.8283121 -338.18843382 409.6883717 -337.00439453 410.54589844 C-333.1759248 413.32328768 -329.37096406 416.13277612 -325.5625 418.9375 C-324.74346191 419.54013672 -323.92442383 420.14277344 -323.08056641 420.76367188 C-313.55144822 427.7857267 -304.05145909 434.862103 -295.06884766 442.58007812 C-292.82572761 444.34887732 -290.86887913 445.69942609 -288.42504883 447.08935547 C-283.7148719 449.93682454 -279.01516114 452.83590006 -277.26138306 458.30215454 C-276.25281638 464.75110491 -276.72178943 471.2029828 -277.125 477.6875 C-277.19533421 479.66058527 -277.2591936 481.63391254 -277.31640625 483.60742188 C-277.46964945 488.41099082 -277.71045597 493.2027964 -278 498 C-273.99318945 496.11561692 -270.82448554 493.49966725 -267.4375 490.6875 C-259.321246 484.07151712 -250.78296198 478.17748335 -242.06494141 472.38769531 C-240.34902699 471.23455538 -238.66086013 470.04025422 -236.98046875 468.8359375 C-231.75312099 465.19044459 -226.42624257 462.82433824 -220.4375 460.75 C-219.77226318 460.51547119 -219.10702637 460.28094238 -218.42163086 460.03930664 C-203.98945628 455.39533134 -188.72777778 454.46549672 -173.6875 453.875 C-171.88303879 453.79606139 -170.07859578 453.71670553 -168.27416992 453.63696289 C-152.58573005 452.96838999 -136.88824405 452.60455389 -121.18823242 452.34130859 C-111.09430184 452.16559912 -101.06551031 451.80288903 -91 451 C-90.54862671 452.16559448 -90.54862671 452.16559448 -90.08813477 453.35473633 C-86.50104255 462.07498406 -79.39560166 469.24848796 -73 476 C-72.26652344 476.78632813 -71.53304688 477.57265625 -70.77734375 478.3828125 C-64.96921655 484.42654275 -58.40049896 491.11090842 -50 493 C-50.63346081 533.75847851 -52.1220228 574.59254714 -55.9375 615.1875 C-56.01086578 616.00500732 -56.08423157 616.82251465 -56.15982056 617.66479492 C-58.83988989 646.97437781 -72.00488258 668.72787532 -88.53393555 692.44262695 C-89.05640869 693.19503662 -89.57888184 693.94744629 -90.1171875 694.72265625 C-90.80723877 695.70890991 -90.80723877 695.70890991 -91.51123047 696.71508789 C-93.47394527 699.72739485 -95.2162275 702.87839812 -97 706 C-83.14 706 -69.28 706 -55 706 C-54.34 707.32 -53.68 708.64 -53 710 C-42.84494594 725.47658125 -31.57517609 740.27801929 -20.57421875 755.15625 C-18.08585177 758.52274261 -15.61119407 761.89882387 -13.14453125 765.28125 C-12.51345459 766.14435791 -11.88237793 767.00746582 -11.23217773 767.89672852 C-10.02453993 769.5488761 -8.81948006 771.20291218 -7.61743164 772.85913086 C-4.94893657 776.50299332 -2.34857819 779.93727605 1 783 C6.62825075 776.46164913 11.94723598 769.82833842 16.90478516 762.76586914 C20.58542492 757.53722453 24.40207683 752.41900243 28.25 747.3125 C33.34560306 740.54486179 38.41458836 733.75930531 43.4375 726.9375 C43.97987305 726.20120361 44.52224609 725.46490723 45.08105469 724.70629883 C45.60989258 723.98724365 46.13873047 723.26818848 46.68359375 722.52734375 C47.2338623 721.81280029 47.78413086 721.09825684 48.35107422 720.36206055 C50.10350212 717.98059017 50.10350212 717.98059017 51.44970703 715.03833008 C53.34845349 711.55560713 54.84575996 709.43652486 58 707 C64.75442574 705.05568615 72.04945246 705.6445412 79 705.8125 C80.93879056 705.81946474 82.87760567 705.82146695 84.81640625 705.81835938 C89.54648868 705.82153459 94.27118774 705.8923827 99 706 C97.56631904 702.2604854 95.98583262 699.3867021 93.5625 696.1875 C75.4073227 671.70601772 60.99850966 648.28774 57.875 617.375 C57.79317474 616.59302246 57.71134949 615.81104492 57.62704468 615.00537109 C56.0016298 599.40264178 54.80908128 583.80695748 54.24072266 568.12988281 C54.06511369 563.39796838 53.83808251 558.66948135 53.59912109 553.94042969 C53.25520927 547.08800372 52.97578631 540.235171 52.74993229 533.37783432 C52.62076449 529.50232327 52.46788898 525.63122136 52.25601196 521.75927734 C50.9613716 497.56194598 50.9613716 497.56194598 54.28747559 491.75048828 C57.87781868 487.85626546 62.19391624 486.03928472 67 484 C69.28920325 482.30162758 69.28920325 482.30162758 71.078125 480.453125 C71.61405273 479.92509277 72.14998047 479.39706055 72.70214844 478.85302734 C73.21293945 478.32402832 73.72373047 477.7950293 74.25 477.25 C74.82008789 476.67072754 75.39017578 476.09145508 75.97753906 475.49462891 C82.64841195 468.54128215 88.77654416 460.69246145 93 452 C220.30552343 451.53342621 220.30552343 451.53342621 269.95703125 491.59765625 C272.17399271 493.34788898 274.39009584 495.01716253 276.69018555 496.65014648 C277.31241501 497.09253159 277.93464447 497.53491669 278.57572937 497.9907074 C279.04573868 498.32377396 279.51574799 498.65684052 280 499 C279.93603027 497.7404248 279.87206055 496.48084961 279.80615234 495.18310547 C278.1056727 457.05171539 278.1056727 457.05171539 284.58203125 449.34765625 C288.23301868 446.23254929 292.29698713 444.08824893 296.66113281 442.12890625 C300.23006821 440.40628023 303.05432463 437.98298153 306.0625 435.4375 C307.1874158 434.54442959 308.316375 433.65642978 309.44921875 432.7734375 C310.30652588 432.10199707 310.30652588 432.10199707 311.18115234 431.41699219 C321.59310403 423.30545292 332.13753753 415.36544998 342.70703125 407.4609375 C343.28018066 407.03006836 343.85333008 406.59919922 344.44384766 406.15527344 C345.76204852 405.17665303 347.10333569 404.22924876 348.44921875 403.2890625 C348.96097656 402.86367188 349.47273437 402.43828125 350 402 C350 401.34 350 400.68 350 400 C348.34174328 398.4884539 348.34174328 398.4884539 346.15234375 396.9453125 C345.32726318 396.33679443 344.50218262 395.72827637 343.65209961 395.10131836 C342.75628174 394.4491333 341.86046387 393.79694824 340.9375 393.125 C334.67563122 388.50486512 328.47040122 383.85338364 322.4375 378.9375 C315.52357879 373.32952065 308.38343375 368.05673645 301.19140625 362.8125 C300.03439209 361.92836426 300.03439209 361.92836426 298.85400391 361.02636719 C296.56396016 359.40041654 294.32345441 358.02414798 291.89208984 356.63769531 C281.20168008 350.17978115 281.20168008 350.17978115 279.12893677 344.69506836 C277.85869757 338.41049304 278.19765271 332.11688417 278.5 325.75 C278.5320996 323.829536 278.55689789 321.9089354 278.57421875 319.98828125 C278.63203222 315.31968933 278.78840337 310.6640487 279 306 C273.41943658 309.64406021 268.02702693 313.43195572 262.75 317.5 C233.96412411 339.2817421 233.96412411 339.2817421 220 343 C219.3714209 343.1767627 218.7428418 343.35352539 218.09521484 343.53564453 C202.71883088 347.74649819 186.84759172 348.30392446 171 349 C169.05311279 349.08677002 169.05311279 349.08677002 167.06689453 349.17529297 C159.48034363 349.49230074 151.89797815 349.70690364 144.30593872 349.83427429 C138.8887386 349.9342196 133.48180159 350.1439509 128.06918335 350.38577271 C123.89167329 350.55877343 119.71364448 350.6741962 115.53393555 350.77947998 C113.48654109 350.84263878 111.43970951 350.9285717 109.39428711 351.03839111 C93.60233582 351.86376458 93.60233582 351.86376458 89.29589844 348.77954102 C86.01119432 345.31811402 84.07202468 341.25637844 82 337 C74.69877576 327.11029913 64.56702434 318.23183487 54 312 C53.34 312 52.68 312 52 312 C52.37169198 286.07436857 52.81167416 260.15540291 53.9375 234.25 C53.99378571 232.88532089 53.99378571 232.88532089 54.0512085 231.49307251 C55.33201664 200.90777756 55.33201664 200.90777756 59.125 187.9375 C59.33817871 187.19838379 59.55135742 186.45926758 59.77099609 185.69775391 C65.68330394 166.31415541 78.29198122 150.49775777 90.22900391 134.46948242 C91.07277588 133.33603394 91.07277588 133.33603394 91.93359375 132.1796875 C92.42915771 131.51694824 92.92472168 130.85420898 93.43530273 130.17138672 C95.36384557 127.4950784 97.18251968 124.75259811 99 122 C97.23124512 122.04265991 97.23124512 122.04265991 95.42675781 122.08618164 C86.22646006 122.25136605 77.04430899 122.1361637 67.86328125 121.4921875 C66.99121033 121.45501114 66.1191394 121.41783478 65.22064209 121.37953186 C59.19687894 120.87425508 56.13181189 119.03043672 51.95828247 114.68669128 C49.80708562 111.85876943 48.57602117 108.84104855 47.23095703 105.57373047 C44.86628573 100.6295883 41.2730747 96.51731383 37.875 92.25 C36.49705304 90.45929508 35.12196666 88.66638465 33.75 86.87109375 C32.50005767 85.24735144 31.25006322 83.62364925 30 82 C29.08292647 80.8036972 28.16620587 79.60712369 27.25 78.41015625 C23.66196145 73.73036256 20.05488236 69.06679854 16.421875 64.421875 C15.48045654 63.21664185 15.48045654 63.21664185 14.52001953 61.98706055 C13.28856152 60.41148601 12.05526422 58.8373467 10.81982422 57.26489258 C8.31627025 54.06163832 5.8665581 50.87388149 3.6484375 47.46484375 C3.10445313 46.65144531 2.56046875 45.83804688 2 45 C1.67 45 1.34 45 1 45 Z " fill="#701613" transform="translate(397,7)"/>
<path d="M0 0 C18.50734857 14.39460444 31.67785164 34.00274536 35.984375 57.28125 C38.80838057 83.22026409 34.55345136 107.54300677 17.93359375 128.25390625 C-0.15519056 149.02665237 -21.54074034 160.26973944 -49.1796875 162.4375 C-71.73439297 163.05685118 -94.02315711 155.59978708 -110.96875 140.59375 C-112.52028116 139.12493375 -114.06282476 137.6465312 -115.59375 136.15625 C-116.54701172 135.27839844 -116.54701172 135.27839844 -117.51953125 134.3828125 C-131.09162329 121.56305373 -140.48679302 102.033376 -141.78662109 83.38989258 C-142.62290617 53.91971328 -136.02899212 31.41130053 -115.703125 9.2734375 C-104.44928553 -2.02208285 -90.73909292 -9.2584627 -75.59375 -13.84375 C-74.5934375 -14.1634375 -73.593125 -14.483125 -72.5625 -14.8125 C-47.83898495 -21.69430316 -20.59091233 -14.63691359 0 0 Z M-102.55859375 34.52734375 C-112.72734478 47.66279374 -116.96542243 63.73832721 -115.59375 80.15625 C-113.16432147 97.67568562 -104.52567906 112.00432783 -91.05078125 123.28515625 C-77.00535648 133.62383935 -60.57901824 137.84641275 -43.296875 135.7578125 C-28.95392874 133.25915444 -16.63401165 126.66306656 -6.59375 116.15625 C-5.64628906 115.23779297 -5.64628906 115.23779297 -4.6796875 114.30078125 C6.38221304 102.87339942 10.94682695 86.90573198 10.82836914 71.32006836 C10.20040192 54.12612004 3.48256266 40.29513423 -8.59375 28.15625 C-9.18542969 27.52976562 -9.77710938 26.90328125 -10.38671875 26.2578125 C-21.82987454 15.09252584 -38.76943194 9.63231717 -54.44775391 9.73168945 C-74.02332745 10.42931716 -89.96862273 19.9833737 -102.55859375 34.52734375 Z " fill="#701613" transform="translate(450.59375,336.84375)"/>
<path d="M0 0 C3.3134921 0.47246708 6.62558794 0.95409125 9.9375 1.4375 C10.88302734 1.57220703 11.82855469 1.70691406 12.80273438 1.84570312 C14.15141602 2.04389648 14.15141602 2.04389648 15.52734375 2.24609375 C16.77632446 2.42676392 16.77632446 2.42676392 18.05053711 2.61108398 C20 3 20 3 21 4 C21.1019553 6.98171156 21.13943132 9.9397154 21.1328125 12.921875 C21.13426773 13.84053345 21.13572296 14.75919189 21.13722229 15.70568848 C21.139484 18.72049959 21.13315661 21.73519996 21.125 24.75 C21.12311676 25.7771814 21.12123352 26.80436279 21.11929321 27.8626709 C21.02480034 71.64066499 18.86763804 115.24759049 8.453125 157.94262695 C7.81186518 162.26940323 8.10760944 165.49016032 10.35107422 169.28588867 C11.19436279 170.34126831 11.19436279 170.34126831 12.0546875 171.41796875 C12.97701172 172.58682617 12.97701172 172.58682617 13.91796875 173.77929688 C14.56378906 174.57400391 15.20960938 175.36871094 15.875 176.1875 C16.83212891 177.39696289 16.83212891 177.39696289 17.80859375 178.63085938 C20.41550267 181.90446213 22.9871369 185.08900741 26 188 C28.06440864 185.3139614 30.12616978 182.62590155 32.1875 179.9375 C32.76564453 179.18533203 33.34378906 178.43316406 33.93945312 177.65820312 C35.08891988 176.15805159 36.23075286 174.65201892 37.36474609 173.14013672 C38.39971344 171.78562437 39.46725472 170.45489361 40.57666016 169.16064453 C43.16659497 166.00631714 44.03586786 164.49522934 43.73681641 160.36621094 C43.50840708 158.90800965 43.26190972 157.45255813 43 156 C42.80494118 154.91023109 42.80494118 154.91023109 42.60594177 153.79844666 C42.1633422 151.42807577 41.69554045 149.06372709 41.22265625 146.69921875 C40.87011665 144.89785024 40.51791447 143.09641567 40.16601562 141.29492188 C39.61896076 138.50861176 39.06955259 135.72284458 38.51391602 132.93823242 C36.00288955 120.32215831 34.06558132 107.82143091 33 95 C32.88889893 93.69458252 32.77779785 92.38916504 32.66333008 91.04418945 C32.35919508 87.13556586 32.10094923 83.22625099 31.875 79.3125 C31.81146332 78.24050354 31.81146332 78.24050354 31.74664307 77.14685059 C30.33920257 52.47101492 30.82840869 27.70386831 31 3 C41.395 1.515 41.395 1.515 52 0 C52.04898438 3.28710938 52.09796875 6.57421875 52.1484375 9.9609375 C52.81427042 51.9853176 54.28729763 93.21219711 62.5 134.5625 C62.71515762 135.65073563 62.71515762 135.65073563 62.93466187 136.76095581 C64.64915631 145.35007716 66.66318587 153.67991805 69.34570312 162.02709961 C70.21156508 165.96127908 69.8165202 168.45583897 67.94360352 171.99780273 C67.50975342 172.63661377 67.07590332 173.2754248 66.62890625 173.93359375 C66.14212402 174.65780518 65.6553418 175.3820166 65.15380859 176.12817383 C64.36611084 177.27129028 64.36611084 177.27129028 63.5625 178.4375 C63.02189941 179.23373779 62.48129883 180.02997559 61.92431641 180.8503418 C60.29411772 183.24153926 58.65048779 185.62277088 57 188 C56.54318848 188.65838867 56.08637695 189.31677734 55.61572266 189.99511719 C50.45450743 197.39632731 45.07703511 204.61753974 39.53125 211.734375 C37.73566159 214.03937015 35.96989922 216.36419449 34.21875 218.703125 C33.53619141 219.60889282 33.53619141 219.60889282 32.83984375 220.53295898 C31.96259088 221.69810041 31.08999898 222.86676934 30.22265625 224.03930664 C29.19541069 225.39640748 28.10312687 226.70382592 27 228 C26.34 228 25.68 228 25 228 C23.31051514 226.0581695 21.74239918 224.10889501 20.1875 222.0625 C19.70176514 221.43134277 19.21603027 220.80018555 18.71557617 220.14990234 C17.67227393 218.79299582 16.63142305 217.43420167 15.59277344 216.07373047 C14.06022999 214.07841716 12.50660086 212.10177063 10.9453125 210.12890625 C-17.32752936 174.14609684 -17.32752936 174.14609684 -16.76953125 165.37890625 C-16.00207905 160.50788824 -14.83697834 155.72965491 -13.6875 150.9375 C-2.21879812 101.34064901 -0.96783021 50.67732096 0 0 Z " fill="#701613" transform="translate(372,511)"/>
<path d="M0 0 C3.95044728 1.31681576 5.46310999 3.85356619 7.875 7.0625 C8.86168243 8.35148584 9.85002981 9.63919854 10.83984375 10.92578125 C11.61497314 11.93439209 11.61497314 11.93439209 12.40576172 12.96337891 C13.96721133 14.95811285 15.56736524 16.91147334 17.19140625 18.85546875 C24.68957619 27.83471678 31.54604782 37.10114084 37.74658203 47.03173828 C38.96031418 48.99268647 38.96031418 48.99268647 40.29638672 50.72998047 C42.03778924 53.22237647 43.03715844 55.27389378 42.88037109 58.33764648 C42.38024024 60.94159412 41.73135514 63.45176863 41 66 C40.62574073 67.48097447 40.25455998 68.9627309 39.88671875 70.4453125 C39.69311768 71.19578857 39.4995166 71.94626465 39.30004883 72.71948242 C30.12056859 108.76787572 28.10730332 145.72764678 27.4375 182.75 C27.39416097 185.01953663 27.35054271 187.28906794 27.30664062 189.55859375 C27.20122058 195.03900565 27.09919924 200.51947214 27 206 C19.99564408 205.3741355 12.99600901 204.71325905 6 204 C5.90573763 194.62629115 5.83546788 185.2527546 5.79275131 175.87866879 C5.77221038 171.52204648 5.7445395 167.16575694 5.69824219 162.80932617 C5.39349862 133.32415159 7.96613394 105.63513387 13.8515625 76.671875 C14.03477051 75.72900635 14.21797852 74.7861377 14.40673828 73.81469727 C14.8108985 71.89718155 15.28119669 69.99270418 15.80810547 68.10522461 C17.2091599 62.88715059 17.2091599 62.88715059 16.00146484 57.79638672 C14.42568542 55.69653702 12.75121646 53.89767422 10.875 52.0625 C10.27945313 51.43021484 9.68390625 50.79792969 9.0703125 50.14648438 C7.41078956 48.39700942 5.71685368 46.69299376 4 45 C3.19820313 44.19433594 2.39640625 43.38867188 1.5703125 42.55859375 C0.79300781 41.78708984 0.79300781 41.78708984 0 41 C-2.15999226 43.88551319 -4.3003667 46.78502682 -6.4375 49.6875 C-7.04916016 50.50412109 -7.66082031 51.32074219 -8.29101562 52.16210938 C-8.87431641 52.95810547 -9.45761719 53.75410156 -10.05859375 54.57421875 C-10.59798584 55.30213623 -11.13737793 56.03005371 -11.69311523 56.7800293 C-14.58128889 61.68609376 -13.93077455 65.62759707 -12.890625 71.08203125 C-12.76400986 71.76449921 -12.63739471 72.44696716 -12.50694275 73.15011597 C-12.23551593 74.61257354 -11.96041532 76.07435321 -11.68197632 77.53549194 C-10.95143843 81.38626011 -10.25836236 85.24370281 -9.56640625 89.1015625 C-9.35960991 90.25288918 -9.35960991 90.25288918 -9.14863586 91.42747498 C-6.73752438 104.97220301 -5.01107933 118.55767795 -4.43359375 132.30859375 C-4.37179428 133.76508835 -4.37179428 133.76508835 -4.30874634 135.25100708 C-3.84780483 147.317371 -3.84982871 159.3868967 -3.86962891 171.46044922 C-3.87418536 174.78127622 -3.87194388 178.10195094 -3.86605644 181.42276573 C-3.86160514 184.62299263 -3.86470112 187.82320959 -3.8671875 191.0234375 C-3.86516327 192.21480316 -3.86313904 193.40616882 -3.86105347 194.63363647 C-3.86578171 196.26397324 -3.86578171 196.26397324 -3.87060547 197.92724609 C-3.87140106 198.88601654 -3.87219666 199.84478699 -3.87301636 200.83261108 C-4 203 -4 203 -5 204 C-7.41831079 204.40403485 -9.81936411 204.75352086 -12.25 205.0625 C-12.91902344 205.15337891 -13.58804687 205.24425781 -14.27734375 205.33789062 C-17.88214023 205.80885127 -21.36914669 206.04028198 -25 206 C-25.01981934 204.87021729 -25.03963867 203.74043457 -25.06005859 202.57641602 C-25.93246361 154.32016712 -28.22033803 106.35597922 -39.67211914 59.234375 C-40.19261169 55.6874295 -38.44290909 53.12150397 -36.75 50.125 C-36.38793457 49.46862549 -36.02586914 48.81225098 -35.65283203 48.13598633 C-31.39409018 40.62809498 -26.27724965 33.81224238 -21 27 C-20.4234668 26.25218262 -19.84693359 25.50436523 -19.25292969 24.73388672 C-15.75777189 20.20440933 -12.24229898 15.69129825 -8.71289062 11.18847656 C-5.799444 7.46610833 -2.90002687 3.73282703 0 0 Z " fill="#701613" transform="translate(397,101)"/>
<path d="M0 0 C1.0648807 0.82564173 2.12456137 1.65802214 3.1796875 2.49609375 C3.75025879 2.94227051 4.32083008 3.38844727 4.90869141 3.84814453 C9.35668776 7.34096615 13.73821345 10.91386953 18.1015625 14.51171875 C21.6071202 17.38664702 25.14008353 20.22576919 28.6796875 23.05859375 C29.3183374 23.57139893 29.9569873 24.0842041 30.61499023 24.61254883 C34.87342776 28.022271 39.19325948 31.33222872 43.61328125 34.53125 C44.08894531 34.99402344 44.56460938 35.45679688 45.0546875 35.93359375 C45.0546875 36.92359375 45.0546875 37.91359375 45.0546875 38.93359375 C42.83443901 41.00684648 40.62655803 42.87697675 38.2421875 44.74609375 C37.52732178 45.31577881 36.81245605 45.88546387 36.07592773 46.47241211 C29.11359188 51.97634474 22.0062322 57.28273196 14.8046875 62.46875 C11.63313591 64.75478055 8.54561628 67.11339724 5.4921875 69.5546875 C4.03386347 70.68100162 2.57553052 71.80730421 1.1171875 72.93359375 C0.48047119 73.46863525 -0.15624512 74.00367676 -0.81225586 74.55493164 C-3.75979876 76.7784902 -5.81423093 77.94213539 -9.56396484 77.91381836 C-12.74659492 77.41695093 -15.81889793 76.70935988 -18.9453125 75.93359375 C-21.46022244 75.38991092 -23.97589076 74.84972785 -26.4921875 74.3125 C-27.83269665 74.01638591 -29.17294339 73.71908167 -30.51293945 73.4206543 C-45.59404608 70.07436886 -60.54609912 67.36506268 -75.9453125 65.93359375 C-76.90824219 65.83739746 -77.87117187 65.74120117 -78.86328125 65.64208984 C-104.12793883 63.18580369 -129.58555271 63.28917062 -154.9453125 62.93359375 C-154.88472656 62.33933594 -154.82414062 61.74507813 -154.76171875 61.1328125 C-154.11513372 54.73659446 -153.51746904 48.33687761 -152.9453125 41.93359375 C-97.04827622 41.49187039 -97.04827622 41.49187039 -73.9453125 43.93359375 C-72.0269458 44.1349292 -72.0269458 44.1349292 -70.06982422 44.34033203 C-54.58726492 46.00130612 -39.25855889 48.1959962 -24.0012207 51.35864258 C-23.00952881 51.56384521 -22.01783691 51.76904785 -20.99609375 51.98046875 C-19.70699097 52.25648926 -19.70699097 52.25648926 -18.3918457 52.53808594 C-15.81697568 52.95434075 -13.54709429 53.15463388 -10.9453125 52.93359375 C-8.75155022 51.24159624 -6.88995218 49.6232978 -4.9453125 47.68359375 C-3.92586538 46.69778321 -2.90504804 45.71338754 -1.8828125 44.73046875 C-1.39425781 44.25673828 -0.90570312 43.78300781 -0.40234375 43.29492188 C1.64944571 41.37790142 3.83329657 39.64863822 6.0546875 37.93359375 C4.51497857 33.97176961 2.03501113 32.03577101 -1.2578125 29.43359375 C-2.20269531 28.68078125 -3.14757812 27.92796875 -4.12109375 27.15234375 C-5.05308594 26.42015625 -5.98507812 25.68796875 -6.9453125 24.93359375 C-8.01652344 23.74443359 -8.01652344 23.74443359 -9.109375 22.53125 C-13.78907779 19.89488851 -17.97133623 21.66988726 -23.0078125 22.87109375 C-34.1958281 25.28444854 -45.36078013 27.13034465 -56.6953125 28.68359375 C-57.82877609 28.84273758 -57.82877609 28.84273758 -58.98513794 29.00509644 C-73.38285959 31.02456948 -87.72345203 32.03387027 -102.2578125 32.49609375 C-103.56637207 32.53782715 -104.87493164 32.57956055 -106.22314453 32.62255859 C-116.58819454 32.93235069 -126.95095727 33.04136772 -137.3203125 33.05859375 C-138.41733994 33.06247604 -138.41733994 33.06247604 -139.53652954 33.06643677 C-141.59732101 33.07223082 -143.6579578 33.07075165 -145.71875 33.06640625 C-146.89872559 33.06527832 -148.07870117 33.06415039 -149.29443359 33.06298828 C-151.9453125 32.93359375 -151.9453125 32.93359375 -152.9453125 31.93359375 C-153.51209691 29.14372231 -154.02885053 26.36361505 -154.5078125 23.55859375 C-154.64638672 22.77742188 -154.78496094 21.99625 -154.92773438 21.19140625 C-155.47554239 18.03948623 -155.9453125 15.14239458 -155.9453125 11.93359375 C-154.88658936 11.91377441 -153.82786621 11.89395508 -152.73706055 11.87353516 C-113.47865743 11.11760637 -74.71680159 9.91184067 -36.0703125 2.43359375 C-34.91089645 2.20937241 -34.91089645 2.20937241 -33.72805786 1.98062134 C-31.48928454 1.54409264 -29.25203579 1.10081246 -27.015625 0.65234375 C-26.30935471 0.51080368 -25.60308441 0.36926361 -24.87541199 0.22343445 C-19.89384373 -0.80322923 -15.06064428 -2.11737375 -10.23779297 -3.72851562 C-6.05378372 -4.34520027 -3.33737602 -2.34147469 0 0 Z " fill="#701613" transform="translate(654.9453125,371.06640625)"/>
<path d="M0 0 C42.01874078 8.56449458 83.89577446 10.2920084 126.63546753 11.16098022 C125.64546753 18.09098022 124.65546753 25.02098022 123.63546753 32.16098022 C102.94581014 32.27831288 82.30643614 32.19135594 61.63546753 31.16098022 C60.09995239 31.08822876 60.09995239 31.08822876 58.53341675 31.01400757 C37.66419686 29.94248283 16.7929918 26.60318419 -3.64480591 22.26596069 C-4.32795868 22.12218491 -5.01111145 21.97840912 -5.71496582 21.83027649 C-7.579678 21.43282032 -9.44169863 21.0227955 -11.30349731 20.61190796 C-15.65843716 19.97037232 -17.42421296 20.47349587 -20.95046997 23.05160522 C-21.8708606 23.83019897 -22.79125122 24.60879272 -23.73953247 25.41098022 C-25.18779419 26.62334351 -25.18779419 26.62334351 -26.66531372 27.86019897 C-28.22832468 29.19249052 -29.78934467 30.52713985 -31.34500122 31.86801147 C-35.18837973 35.16098022 -35.18837973 35.16098022 -37.36453247 35.16098022 C-33.68780032 38.91302719 -29.89435436 42.46799445 -25.92703247 45.91098022 C-25.10622192 46.65154663 -25.10622192 46.65154663 -24.26882935 47.40707397 C-20.72294579 50.47038166 -18.21821247 52.10770813 -13.36453247 52.16098022 C-10.04537564 51.61842946 -6.81222662 50.79266896 -3.55203247 49.97348022 C38.00942177 40.31720927 81.23657207 40.81438798 123.63546753 41.16098022 C124.16533578 44.47210159 124.68284277 47.78503579 125.19796753 51.09848022 C125.34943237 52.04400757 125.50089722 52.98953491 125.6569519 53.9637146 C125.86481323 55.31239624 125.86481323 55.31239624 126.07687378 56.68832397 C126.20779419 57.52097778 126.3387146 58.35363159 126.47360229 59.21151733 C126.52701782 59.85484009 126.58043335 60.49816284 126.63546753 61.16098022 C125.03749992 62.75894783 123.34730003 62.3097487 121.13278198 62.33456421 C120.16751083 62.34814972 119.20223969 62.36173523 118.2077179 62.37573242 C116.61927818 62.39124649 116.61927818 62.39124649 114.99874878 62.40707397 C112.74076883 62.43839454 110.48279371 62.47006534 108.224823 62.50204468 C106.44177765 62.52508163 106.44177765 62.52508163 104.62271118 62.54858398 C67.21020137 63.05657686 31.22676645 65.2445744 -5.33328247 73.79379272 C-6.34414917 74.01825073 -7.35501587 74.24270874 -8.39651489 74.47396851 C-10.36544126 74.929719 -12.32290145 75.43839645 -14.26419067 76.00033569 C-18.11973801 76.99347694 -20.97663666 77.72336391 -24.74685669 76.19564819 C-27.17731114 74.62190168 -29.34440758 72.90906631 -31.55203247 71.03598022 C-33.20564653 69.72474224 -34.85929289 68.41354498 -36.51296997 67.10238647 C-37.32733521 66.43739136 -38.14170044 65.77239624 -38.98074341 65.08724976 C-42.46531459 62.27147071 -46.07082975 59.63014561 -49.67703247 56.97348022 C-56.02076065 52.22698527 -62.26389413 47.35796918 -68.47390747 42.43832397 C-70.74894423 40.64596393 -73.03696806 38.88405582 -75.36453247 37.16098022 C-74.06940427 33.27559561 -71.66651081 31.86384544 -68.48953247 29.53598022 C-67.29312424 28.63900238 -66.09782855 27.74053887 -64.90359497 26.84066772 C-64.30450317 26.39046265 -63.70541138 25.94025757 -63.08816528 25.47640991 C-60.62868479 23.59940129 -58.24630868 21.6352549 -55.86453247 19.66098022 C-50.34947902 15.12105217 -44.75147331 10.71000856 -39.03494263 6.42807007 C-37.33714601 5.14020622 -35.67027697 3.81785823 -34.00125122 2.49301147 C-32.89438624 1.65157637 -31.78635189 0.81167682 -30.67703247 -0.02651978 C-29.70379028 -0.78319946 -28.7305481 -1.53987915 -27.72781372 -2.31948853 C-19.42789535 -6.06939357 -8.62753719 -1.77205157 0 0 Z " fill="#701613" transform="translate(170.36453247070313,371.8390197753906)"/>
</svg>
